<mxfile host="65bd71144e">
    <diagram id="8hOmSmk45YM_-mC-my9K" name="Page-1">
        <mxGraphModel dx="3586" dy="998" grid="1" gridSize="10" guides="1" tooltips="1" connect="1" arrows="1" fold="1" page="1" pageScale="1" pageWidth="827" pageHeight="1169" math="0" shadow="0">
            <root>
                <mxCell id="0"/>
                <mxCell id="1" parent="0"/>
                <mxCell id="7" value="PLAYER (id, name, email)" style="html=1;verticalAlign=bottom;endArrow=block;exitX=0.036;exitY=0;exitDx=0;exitDy=0;exitPerimeter=0;" edge="1" parent="1" source="9">
                    <mxGeometry width="80" relative="1" as="geometry">
                        <mxPoint x="210" y="150" as="sourcePoint"/>
                        <mxPoint x="610" y="140" as="targetPoint"/>
                    </mxGeometry>
                </mxCell>
                <mxCell id="8" value="Server" style="verticalAlign=top;align=center;spacingTop=8;spacingLeft=2;spacingRight=12;shape=cube;size=10;direction=south;fontStyle=4;html=1;" vertex="1" parent="1">
                    <mxGeometry x="610" y="120" width="180" height="560" as="geometry"/>
                </mxCell>
                <mxCell id="9" value="Client" style="verticalAlign=top;align=center;spacingTop=8;spacingLeft=2;spacingRight=12;shape=cube;size=10;direction=south;fontStyle=4;html=1;" vertex="1" parent="1">
                    <mxGeometry x="20" y="120" width="180" height="560" as="geometry"/>
                </mxCell>
                <mxCell id="10" value="S_PLAYER (id, name, email)" style="html=1;verticalAlign=bottom;endArrow=block;entryX=0.071;entryY=0.002;entryDx=0;entryDy=0;entryPerimeter=0;exitX=0.071;exitY=1.002;exitDx=0;exitDy=0;exitPerimeter=0;" edge="1" parent="1" source="8" target="9">
                    <mxGeometry width="80" relative="1" as="geometry">
                        <mxPoint x="608" y="168" as="sourcePoint"/>
                        <mxPoint x="510" y="130" as="targetPoint"/>
                    </mxGeometry>
                </mxCell>
                <mxCell id="11" value="SPECS (quizmaster, specs)" style="html=1;verticalAlign=bottom;endArrow=block;entryX=0.144;entryY=0.998;entryDx=0;entryDy=0;entryPerimeter=0;" edge="1" parent="1" target="8">
                    <mxGeometry width="80" relative="1" as="geometry">
                        <mxPoint x="200" y="201" as="sourcePoint"/>
                        <mxPoint x="620" y="160" as="targetPoint"/>
                    </mxGeometry>
                </mxCell>
                <mxCell id="12" value="S_GAME (action, snapshot)" style="html=1;verticalAlign=bottom;endArrow=block;entryX=0.249;entryY=-0.001;entryDx=0;entryDy=0;entryPerimeter=0;exitX=0.249;exitY=1.004;exitDx=0;exitDy=0;exitPerimeter=0;" edge="1" parent="1" source="8" target="9">
                    <mxGeometry width="80" relative="1" as="geometry">
                        <mxPoint x="609" y="280" as="sourcePoint"/>
                        <mxPoint x="200" y="280" as="targetPoint"/>
                    </mxGeometry>
                </mxCell>
                <mxCell id="13" value="JOIN (person, quiz_id)" style="html=1;verticalAlign=bottom;endArrow=block;exitX=0.178;exitY=0.003;exitDx=0;exitDy=0;exitPerimeter=0;" edge="1" parent="1" source="9">
                    <mxGeometry width="80" relative="1" as="geometry">
                        <mxPoint x="205" y="230" as="sourcePoint"/>
                        <mxPoint x="610" y="220" as="targetPoint"/>
                    </mxGeometry>
                </mxCell>
                <mxCell id="14" value="WATCH (person, quiz_id)" style="html=1;verticalAlign=bottom;endArrow=block;exitX=0.212;exitY=-0.004;exitDx=0;exitDy=0;exitPerimeter=0;entryX=0.213;entryY=1.001;entryDx=0;entryDy=0;entryPerimeter=0;" edge="1" parent="1" source="9" target="8">
                    <mxGeometry width="80" relative="1" as="geometry">
                        <mxPoint x="209.45999999999992" y="229.68" as="sourcePoint"/>
                        <mxPoint x="620" y="230" as="targetPoint"/>
                    </mxGeometry>
                </mxCell>
                <mxCell id="15" value="S_GAME (action = START, snapshot)" style="html=1;verticalAlign=bottom;endArrow=block;entryX=0.357;entryY=0.003;entryDx=0;entryDy=0;entryPerimeter=0;exitX=0.358;exitY=1.005;exitDx=0;exitDy=0;exitPerimeter=0;" edge="1" parent="1" source="8" target="9">
                    <mxGeometry width="80" relative="1" as="geometry">
                        <mxPoint x="619.28" y="269.44" as="sourcePoint"/>
                        <mxPoint x="210.18000000000006" y="269.44" as="targetPoint"/>
                    </mxGeometry>
                </mxCell>
                <mxCell id="16" value="START (quiz_id)" style="html=1;verticalAlign=bottom;endArrow=block;exitX=0.321;exitY=-0.003;exitDx=0;exitDy=0;exitPerimeter=0;entryX=0.317;entryY=1.002;entryDx=0;entryDy=0;entryPerimeter=0;" edge="1" parent="1" source="9" target="8">
                    <mxGeometry width="80" relative="1" as="geometry">
                        <mxPoint x="210.72000000000003" y="248.71999999999997" as="sourcePoint"/>
                        <mxPoint x="619.8199999999999" y="249.28000000000003" as="targetPoint"/>
                    </mxGeometry>
                </mxCell>
                <mxCell id="17" value="S_GAME (action = HINT, snapshot)" style="html=1;verticalAlign=bottom;endArrow=block;entryX=0.465;entryY=-0.006;entryDx=0;entryDy=0;entryPerimeter=0;exitX=0.463;exitY=0.996;exitDx=0;exitDy=0;exitPerimeter=0;" edge="1" parent="1" source="8" target="9">
                    <mxGeometry width="80" relative="1" as="geometry">
                        <mxPoint x="619.1" y="330.48" as="sourcePoint"/>
                        <mxPoint x="209.46000000000004" y="329.91999999999996" as="targetPoint"/>
                    </mxGeometry>
                </mxCell>
                <mxCell id="18" value="HINT (quiz_id, question_id, team_s_turn)" style="html=1;verticalAlign=bottom;endArrow=block;exitX=0.429;exitY=-0.004;exitDx=0;exitDy=0;exitPerimeter=0;entryX=0.429;entryY=1.002;entryDx=0;entryDy=0;entryPerimeter=0;" edge="1" parent="1" source="9" target="8">
                    <mxGeometry width="80" relative="1" as="geometry">
                        <mxPoint x="210.53999999999996" y="309.76" as="sourcePoint"/>
                        <mxPoint x="619.64" y="307.52" as="targetPoint"/>
                    </mxGeometry>
                </mxCell>
                <mxCell id="19" value="S_GAME (action = PASS, snapshot)" style="html=1;verticalAlign=bottom;endArrow=block;exitX=0.571;exitY=0.998;exitDx=0;exitDy=0;exitPerimeter=0;entryX=0.57;entryY=-0.003;entryDx=0;entryDy=0;entryPerimeter=0;" edge="1" parent="1" source="8" target="9">
                    <mxGeometry width="80" relative="1" as="geometry">
                        <mxPoint x="620.7199999999999" y="389.2800000000001" as="sourcePoint"/>
                        <mxPoint x="203" y="439" as="targetPoint"/>
                    </mxGeometry>
                </mxCell>
                <mxCell id="20" value="PASS (quiz_id, question_id, team_s_turn)" style="html=1;verticalAlign=bottom;endArrow=block;exitX=0.535;exitY=-0.004;exitDx=0;exitDy=0;exitPerimeter=0;entryX=0.536;entryY=0.998;entryDx=0;entryDy=0;entryPerimeter=0;" edge="1" parent="1" source="9" target="8">
                    <mxGeometry width="80" relative="1" as="geometry">
                        <mxPoint x="210.72000000000003" y="370.24" as="sourcePoint"/>
                        <mxPoint x="619.64" y="370.2400000000001" as="targetPoint"/>
                    </mxGeometry>
                </mxCell>
                <mxCell id="21" value="S_GAME (action = NEXT, snapshot)" style="html=1;verticalAlign=bottom;endArrow=block;entryX=0.678;entryY=-0.008;entryDx=0;entryDy=0;entryPerimeter=0;exitX=0.678;exitY=1;exitDx=0;exitDy=0;exitPerimeter=0;" edge="1" parent="1" source="8" target="9">
                    <mxGeometry width="80" relative="1" as="geometry">
                        <mxPoint x="620.3600000000001" y="449.75999999999965" as="sourcePoint"/>
                        <mxPoint x="212.69999999999993" y="449.19999999999993" as="targetPoint"/>
                    </mxGeometry>
                </mxCell>
                <mxCell id="22" value="NEXT (quiz_id, question_id, team_s_turn)" style="html=1;verticalAlign=bottom;endArrow=block;exitX=0.642;exitY=-0.009;exitDx=0;exitDy=0;exitPerimeter=0;entryX=0.643;entryY=0.997;entryDx=0;entryDy=0;entryPerimeter=0;" edge="1" parent="1" source="9" target="8">
                    <mxGeometry width="80" relative="1" as="geometry">
                        <mxPoint x="210.72000000000003" y="429.6" as="sourcePoint"/>
                        <mxPoint x="620.3600000000001" y="430.15999999999997" as="targetPoint"/>
                    </mxGeometry>
                </mxCell>
                <mxCell id="23" value="S_GAME (action = RIGHT, snapshot)" style="html=1;verticalAlign=bottom;endArrow=block;entryX=0.785;entryY=-0.009;entryDx=0;entryDy=0;entryPerimeter=0;exitX=0.785;exitY=1.006;exitDx=0;exitDy=0;exitPerimeter=0;" edge="1" parent="1" source="8" target="9">
                    <mxGeometry width="80" relative="1" as="geometry">
                        <mxPoint x="620" y="509.68000000000006" as="sourcePoint"/>
                        <mxPoint x="211.43999999999983" y="509.68000000000006" as="targetPoint"/>
                    </mxGeometry>
                </mxCell>
                <mxCell id="24" value="RIGHT (quiz_id, question_id, team_s_turn)" style="html=1;verticalAlign=bottom;endArrow=block;exitX=0.748;exitY=-0.007;exitDx=0;exitDy=0;exitPerimeter=0;entryX=0.749;entryY=1.006;entryDx=0;entryDy=0;entryPerimeter=0;" edge="1" parent="1" source="9" target="8">
                    <mxGeometry width="80" relative="1" as="geometry">
                        <mxPoint x="211.6199999999999" y="489.52" as="sourcePoint"/>
                        <mxPoint x="620.54" y="490.0799999999999" as="targetPoint"/>
                    </mxGeometry>
                </mxCell>
                <mxCell id="25" value="S_GAME (action = REFRESH, snapshot)" style="html=1;verticalAlign=bottom;endArrow=block;entryX=0.893;entryY=-0.006;entryDx=0;entryDy=0;entryPerimeter=0;exitX=0.893;exitY=1;exitDx=0;exitDy=0;exitPerimeter=0;" edge="1" parent="1" source="8" target="9">
                    <mxGeometry width="80" relative="1" as="geometry">
                        <mxPoint x="618.9199999999998" y="569.5999999999999" as="sourcePoint"/>
                        <mxPoint x="211.62000000000012" y="569.5999999999999" as="targetPoint"/>
                    </mxGeometry>
                </mxCell>
                <mxCell id="26" value="REFRESH (person, quiz_id)" style="html=1;verticalAlign=bottom;endArrow=block;exitX=0.857;exitY=-0.013;exitDx=0;exitDy=0;exitPerimeter=0;entryX=0.857;entryY=0.999;entryDx=0;entryDy=0;entryPerimeter=0;" edge="1" parent="1" source="9" target="8">
                    <mxGeometry width="80" relative="1" as="geometry">
                        <mxPoint x="211.26" y="548.8799999999999" as="sourcePoint"/>
                        <mxPoint x="618.9199999999998" y="549.44" as="targetPoint"/>
                    </mxGeometry>
                </mxCell>
                <mxCell id="27" value="Send Player&lt;br&gt;id, name, email" style="verticalAlign=top;align=center;spacingTop=8;spacingLeft=2;spacingRight=12;shape=cube;size=10;direction=south;fontStyle=4;html=1;" vertex="1" parent="1">
                    <mxGeometry x="760" y="760" width="180" height="50" as="geometry"/>
                </mxCell>
                <mxCell id="28" value="Send Game&lt;br&gt;action, snapshot" style="verticalAlign=top;align=center;spacingTop=8;spacingLeft=2;spacingRight=12;shape=cube;size=10;direction=south;fontStyle=4;html=1;" vertex="1" parent="1">
                    <mxGeometry x="760" y="820" width="180" height="530" as="geometry"/>
                </mxCell>
                <mxCell id="29" value="Validate Player" style="verticalAlign=top;align=center;spacingTop=8;spacingLeft=2;spacingRight=12;shape=cube;size=10;direction=south;fontStyle=4;html=1;" vertex="1" parent="1">
                    <mxGeometry x="-560" y="760" width="180" height="50" as="geometry"/>
                </mxCell>
                <mxCell id="30" value="Validate Specs" style="verticalAlign=top;align=center;spacingTop=8;spacingLeft=2;spacingRight=12;shape=cube;size=10;direction=south;fontStyle=4;html=1;" vertex="1" parent="1">
                    <mxGeometry x="-560" y="820" width="180" height="50" as="geometry"/>
                </mxCell>
                <mxCell id="35" value="Request" style="html=1;" vertex="1" parent="1">
                    <mxGeometry x="-1000" y="1000" width="80" height="40" as="geometry"/>
                </mxCell>
                <mxCell id="36" value="PLAYER" style="html=1;" vertex="1" parent="1">
                    <mxGeometry x="-880" y="760" width="80" height="40" as="geometry"/>
                </mxCell>
                <mxCell id="37" value="SPECS" style="html=1;" vertex="1" parent="1">
                    <mxGeometry x="-880" y="820" width="80" height="40" as="geometry"/>
                </mxCell>
                <mxCell id="38" value="JOIN" style="html=1;" vertex="1" parent="1">
                    <mxGeometry x="-880" y="880" width="80" height="40" as="geometry"/>
                </mxCell>
                <mxCell id="40" value="WATCH" style="html=1;" vertex="1" parent="1">
                    <mxGeometry x="-880" y="940" width="80" height="40" as="geometry"/>
                </mxCell>
                <mxCell id="41" value="START" style="html=1;" vertex="1" parent="1">
                    <mxGeometry x="-880" y="1000" width="80" height="40" as="geometry"/>
                </mxCell>
                <mxCell id="42" value="PASS" style="html=1;" vertex="1" parent="1">
                    <mxGeometry x="-880" y="1060" width="80" height="40" as="geometry"/>
                </mxCell>
                <mxCell id="45" value="NEXT" style="html=1;" vertex="1" parent="1">
                    <mxGeometry x="-880" y="1120" width="80" height="40" as="geometry"/>
                </mxCell>
                <mxCell id="46" value="HINT" style="html=1;" vertex="1" parent="1">
                    <mxGeometry x="-880" y="1180" width="80" height="40" as="geometry"/>
                </mxCell>
                <mxCell id="47" value="RIGHT" style="html=1;" vertex="1" parent="1">
                    <mxGeometry x="-880" y="1240" width="80" height="40" as="geometry"/>
                </mxCell>
                <mxCell id="48" value="REFRESH" style="html=1;" vertex="1" parent="1">
                    <mxGeometry x="-880" y="1300" width="80" height="40" as="geometry"/>
                </mxCell>
                <mxCell id="52" value="Find Player" style="verticalAlign=top;align=center;spacingTop=8;spacingLeft=2;spacingRight=12;shape=cube;size=10;direction=south;fontStyle=4;html=1;" vertex="1" parent="1">
                    <mxGeometry x="-360" y="760" width="180" height="50" as="geometry"/>
                </mxCell>
                <mxCell id="53" value="Create Player" style="verticalAlign=top;align=center;spacingTop=8;spacingLeft=2;spacingRight=12;shape=cube;size=10;direction=south;fontStyle=4;html=1;" vertex="1" parent="1">
                    <mxGeometry x="-160" y="760" width="180" height="50" as="geometry"/>
                </mxCell>
                <mxCell id="54" value="Find TeamRoster" style="verticalAlign=top;align=center;spacingTop=8;spacingLeft=2;spacingRight=12;shape=cube;size=10;direction=south;fontStyle=4;html=1;" vertex="1" parent="1">
                    <mxGeometry x="-560" y="880" width="180" height="400" as="geometry"/>
                </mxCell>
                <mxCell id="56" value="Unsubscribe player" style="verticalAlign=top;align=center;spacingTop=8;spacingLeft=2;spacingRight=12;shape=cube;size=10;direction=south;fontStyle=4;html=1;" vertex="1" parent="1">
                    <mxGeometry x="50" y="1300" width="180" height="50" as="geometry"/>
                </mxCell>
                <mxCell id="57" value="Find Match" style="verticalAlign=top;align=center;spacingTop=8;spacingLeft=2;spacingRight=12;shape=cube;size=10;direction=south;fontStyle=4;html=1;" vertex="1" parent="1">
                    <mxGeometry x="-760" y="880" width="180" height="400" as="geometry"/>
                </mxCell>
                <mxCell id="58" value="Find Latest Snapshot" style="verticalAlign=top;align=center;spacingTop=8;spacingLeft=2;spacingRight=12;shape=cube;size=10;direction=south;fontStyle=4;html=1;" vertex="1" parent="1">
                    <mxGeometry x="-360" y="880" width="180" height="470" as="geometry"/>
                </mxCell>
                <mxCell id="61" value="Create Match" style="verticalAlign=top;align=center;spacingTop=8;spacingLeft=2;spacingRight=12;shape=cube;size=10;direction=south;fontStyle=4;html=1;" vertex="1" parent="1">
                    <mxGeometry x="-360" y="820" width="180" height="50" as="geometry"/>
                </mxCell>
                <mxCell id="62" value="Verify Snapshot&lt;br&gt;&lt;br&gt;Validate QuizId&lt;br&gt;Validate TeamSTurn&lt;br&gt;Validate QuestionId" style="verticalAlign=top;align=center;spacingTop=8;spacingLeft=2;spacingRight=12;shape=cube;size=10;direction=south;fontStyle=4;html=1;" vertex="1" parent="1">
                    <mxGeometry x="-160" y="990" width="180" height="290" as="geometry"/>
                </mxCell>
                <mxCell id="63" value="Find Next Question &lt;br&gt;Add to Match tags" style="verticalAlign=top;align=center;spacingTop=8;spacingLeft=2;spacingRight=12;shape=cube;size=10;direction=south;fontStyle=4;html=1;" vertex="1" parent="1">
                    <mxGeometry x="50" y="1120" width="180" height="50" as="geometry"/>
                </mxCell>
                <mxCell id="64" value="Generate Next Snapshot" style="verticalAlign=top;align=center;spacingTop=8;spacingLeft=2;spacingRight=12;shape=cube;size=10;direction=south;fontStyle=4;html=1;" vertex="1" parent="1">
                    <mxGeometry x="520" y="820" width="180" height="460" as="geometry"/>
                </mxCell>
                <mxCell id="66" value="Find Answer" style="verticalAlign=top;align=center;spacingTop=8;spacingLeft=2;spacingRight=12;shape=cube;size=10;direction=south;fontStyle=4;html=1;" vertex="1" parent="1">
                    <mxGeometry x="50" y="1180" width="180" height="105" as="geometry"/>
                </mxCell>
                <mxCell id="67" value="ACTIVE" style="html=1;" vertex="1" parent="1">
                    <mxGeometry x="-880" y="700" width="80" height="40" as="geometry"/>
                </mxCell>
                <mxCell id="68" value="Find Matches" style="verticalAlign=top;align=center;spacingTop=8;spacingLeft=2;spacingRight=12;shape=cube;size=10;direction=south;fontStyle=4;html=1;" vertex="1" parent="1">
                    <mxGeometry x="-560" y="700" width="180" height="50" as="geometry"/>
                </mxCell>
                <mxCell id="69" value="Send Matches&lt;br&gt;quiz[]" style="verticalAlign=top;align=center;spacingTop=8;spacingLeft=2;spacingRight=12;shape=cube;size=10;direction=south;fontStyle=4;html=1;" vertex="1" parent="1">
                    <mxGeometry x="760" y="700" width="180" height="50" as="geometry"/>
                </mxCell>
                <mxCell id="70" value="S_ACTIVE (quizzes)" style="html=1;verticalAlign=bottom;endArrow=block;entryX=0.977;entryY=-0.013;entryDx=0;entryDy=0;entryPerimeter=0;exitX=0.977;exitY=0.998;exitDx=0;exitDy=0;exitPerimeter=0;" edge="1" parent="1" source="8" target="9">
                    <mxGeometry width="80" relative="1" as="geometry">
                        <mxPoint x="620" y="630.0799999999999" as="sourcePoint"/>
                        <mxPoint x="211.07999999999993" y="630.0799999999999" as="targetPoint"/>
                    </mxGeometry>
                </mxCell>
                <mxCell id="71" value="ACTIVE ()" style="html=1;verticalAlign=bottom;endArrow=block;exitX=0.948;exitY=-0.011;exitDx=0;exitDy=0;exitPerimeter=0;entryX=0.948;entryY=1.002;entryDx=0;entryDy=0;entryPerimeter=0;" edge="1" parent="1" source="9" target="8">
                    <mxGeometry width="80" relative="1" as="geometry">
                        <mxPoint x="212.34000000000015" y="609.9200000000001" as="sourcePoint"/>
                        <mxPoint x="620.1799999999998" y="609.9200000000001" as="targetPoint"/>
                    </mxGeometry>
                </mxCell>
                <mxCell id="72" value="Create TeamRoster" style="verticalAlign=top;align=center;spacingTop=8;spacingLeft=2;spacingRight=12;shape=cube;size=10;direction=south;fontStyle=4;html=1;" vertex="1" parent="1">
                    <mxGeometry x="-160" y="820" width="180" height="50" as="geometry"/>
                </mxCell>
                <mxCell id="76" value="Subscribe to quiz and team" style="verticalAlign=top;align=center;spacingTop=8;spacingLeft=2;spacingRight=12;shape=cube;size=10;direction=south;fontStyle=4;html=1;" vertex="1" parent="1">
                    <mxGeometry x="50" y="880" width="180" height="50" as="geometry"/>
                </mxCell>
                <mxCell id="77" value="Subscribe to quiz" style="verticalAlign=top;align=center;spacingTop=8;spacingLeft=2;spacingRight=12;shape=cube;size=10;direction=south;fontStyle=4;html=1;" vertex="1" parent="1">
                    <mxGeometry x="50" y="940" width="180" height="50" as="geometry"/>
                </mxCell>
                <mxCell id="78" value="Subscribe to quiz" style="verticalAlign=top;align=center;spacingTop=8;spacingLeft=2;spacingRight=12;shape=cube;size=10;direction=south;fontStyle=4;html=1;" vertex="1" parent="1">
                    <mxGeometry x="50" y="820" width="180" height="50" as="geometry"/>
                </mxCell>
                <mxCell id="80" value="Find Next Teams Turn" style="verticalAlign=top;align=center;spacingTop=8;spacingLeft=2;spacingRight=12;shape=cube;size=10;direction=south;fontStyle=4;html=1;" vertex="1" parent="1">
                    <mxGeometry x="280" y="1060" width="180" height="109" as="geometry"/>
                </mxCell>
            </root>
        </mxGraphModel>
    </diagram>
</mxfile>